<svg width="22" height="18" viewBox="0 0 22 18" fill="none" xmlns="http://www.w3.org/2000/svg">
<path d="M20.8188 0.428558H14.3405C13.8957 0.428558 13.2727 0.689722 12.9585 1.00771L4.9266 9.13657C4.77515 9.29056 4.69012 9.49899 4.69012 9.71627C4.69012 9.93354 4.77515 10.142 4.9266 10.296L11.8788 17.3321C12.031 17.4854 12.2369 17.5714 12.4516 17.5714C12.6663 17.5714 12.8722 17.4854 13.0244 17.3321L21.0563 9.20323C21.3716 8.88415 21.6285 8.25473 21.6285 7.80453V1.24811C21.628 1.03093 21.5425 0.822808 21.3907 0.669237C21.239 0.515666 21.0333 0.429135 20.8188 0.428558V0.428558ZM16.7699 6.98497C16.5571 6.9849 16.3465 6.94242 16.1499 6.85995C15.9534 6.77749 15.7748 6.65665 15.6244 6.50434C15.4741 6.35204 15.3548 6.17124 15.2734 5.97229C15.1921 5.77333 15.1502 5.5601 15.1503 5.34478C15.1504 5.12946 15.1924 4.91626 15.2738 4.71735C15.3553 4.51845 15.4747 4.33773 15.6252 4.18553C15.7757 4.03332 15.9543 3.91261 16.1509 3.83028C16.3475 3.74794 16.5582 3.7056 16.7709 3.70567C17.2006 3.70582 17.6126 3.87871 17.9164 4.1863C18.2201 4.4939 18.3906 4.91101 18.3905 5.34587C18.3904 5.78073 18.2195 6.19773 17.9156 6.50512C17.6117 6.81251 17.1995 6.98512 16.7699 6.98497Z" fill="#E31E25"/>
<path d="M2.19395 9.71681L11.3714 0.428558H10.0218C9.57697 0.428558 8.95398 0.689722 8.63978 1.00771L0.607869 9.13657C0.456422 9.29056 0.371399 9.49899 0.371399 9.71627C0.371399 9.93354 0.456422 10.142 0.607869 10.296L7.56008 17.3321C7.71224 17.4854 7.91818 17.5714 8.13286 17.5714C8.34755 17.5714 8.55349 17.4854 8.70565 17.3321L9.21311 16.8185L2.19503 9.71572L2.19395 9.71681Z" fill="#E31E25"/>
</svg>
